<svg width="26" height="21" viewBox="0 0 26 21" fill="none" xmlns="http://www.w3.org/2000/svg">
<path d="M25.4702 10.4688C25.4702 10.0601 25.2988 9.66455 24.9956 9.37451L16.334 0.712891C15.9912 0.383301 15.6353 0.238281 15.2661 0.238281C14.4224 0.238281 13.8159 0.831543 13.8159 1.63574C13.8159 2.05762 13.9873 2.41357 14.251 2.67725L17.2173 5.68311L21.0405 9.17676L17.9819 8.99219H2.00342C1.12012 8.99219 0.513672 9.59863 0.513672 10.4688C0.513672 11.3257 1.12012 11.9321 2.00342 11.9321H17.9819L21.0405 11.7476L17.2173 15.2412L14.251 18.2471C13.9873 18.5107 13.8159 18.8667 13.8159 19.2886C13.8159 20.0928 14.4224 20.686 15.2661 20.686C15.6353 20.686 15.9912 20.541 16.3076 20.2378L24.9956 11.5498C25.2988 11.2598 25.4702 10.8643 25.4702 10.4688Z" fill="#F5F5F7"/>
</svg>
