<svg width="24" height="69" viewBox="0 0 24 69" fill="none" xmlns="http://www.w3.org/2000/svg">
<path d="M13.5 67.001C13.5 67.8294 12.8284 68.501 12 68.501C11.1716 68.501 10.5 67.8294 10.5 67.001L13.5 67.001ZM10.9393 0.940315C11.5251 0.35453 12.4749 0.35453 13.0607 0.940315L22.6066 10.4863C23.1924 11.072 23.1924 12.0218 22.6066 12.6076C22.0208 13.1934 21.0711 13.1934 20.4853 12.6076L12 4.1223L3.51472 12.6076C2.92893 13.1934 1.97918 13.1934 1.3934 12.6076C0.807609 12.0218 0.807609 11.072 1.3934 10.4863L10.9393 0.940315ZM10.5 67.001L10.5 2.00098L13.5 2.00098L13.5 67.001L10.5 67.001Z" fill="white"/>
</svg>
