<svg width="26" height="21" viewBox="0 0 26 21" fill="none" xmlns="http://www.w3.org/2000/svg">
<path d="M0.513672 10.4688C0.513672 10.8643 0.685059 11.2598 0.988281 11.5498L9.68945 20.2378C10.0059 20.541 10.3486 20.686 10.731 20.686C11.5615 20.686 12.168 20.0928 12.168 19.2886C12.168 18.8667 12.0098 18.5107 11.7329 18.2471L8.7666 15.2412L4.94336 11.7476L8.01514 11.9321H23.9937C24.8638 11.9321 25.4702 11.3257 25.4702 10.4688C25.4702 9.59863 24.8638 8.99219 23.9937 8.99219H8.01514L4.95654 9.17676L8.7666 5.68311L11.7329 2.67725C12.0098 2.41357 12.168 2.05762 12.168 1.63574C12.168 0.831543 11.5615 0.238281 10.731 0.238281C10.3486 0.238281 9.99268 0.383301 9.6499 0.712891L0.988281 9.37451C0.685059 9.66455 0.513672 10.0601 0.513672 10.4688Z" fill="#F5F5F7"/>
</svg>
