<svg width="24" height="69" viewBox="0 0 24 69" fill="none" xmlns="http://www.w3.org/2000/svg">
<path d="M13.5 2.00098C13.5 1.17255 12.8284 0.500977 12 0.500977C11.1716 0.500977 10.5 1.17255 10.5 2.00098L13.5 2.00098ZM10.9393 68.0616C11.5251 68.6474 12.4749 68.6474 13.0607 68.0616L22.6066 58.5157C23.1924 57.9299 23.1924 56.9802 22.6066 56.3944C22.0208 55.8086 21.0711 55.8086 20.4853 56.3944L12 64.8797L3.51472 56.3944C2.92893 55.8086 1.97918 55.8086 1.3934 56.3944C0.807609 56.9802 0.807609 57.9299 1.3934 58.5157L10.9393 68.0616ZM10.5 2.00098L10.5 67.001L13.5 67.001L13.5 2.00098L10.5 2.00098Z" fill="white"/>
</svg>
