<svg width="56" height="56" viewBox="0 0 56 56" fill="none" xmlns="http://www.w3.org/2000/svg">
<path d="M12.6016 38.541L26.5234 46.3105C27.4902 46.8555 28.4746 46.8555 29.4414 46.3105L43.3633 38.541C45.0684 37.5918 45.9121 36.6074 45.9121 34.1289V19.873C45.9121 18.0098 45.209 16.832 43.627 15.9355L31.2695 9.00977C29.1074 7.79688 26.875 7.79688 24.6953 9.00977L12.3379 15.9355C10.7734 16.832 10.0703 18.0098 10.0703 19.873V34.1289C10.0703 36.6074 10.9141 37.5918 12.6016 38.541ZM36.2266 20.8926L23.2363 13.6328L26.1191 12.0156C27.3848 11.2949 28.5801 11.2773 29.8633 12.0156L40.9375 18.2559L36.2266 20.8926ZM27.9824 25.498L15.0449 18.2559L19.8965 15.4961L32.8691 22.7559L27.9824 25.498ZM14.5352 35.8164C13.5684 35.2715 13.2344 34.7266 13.2344 33.7949V21.0332L26.3301 28.416V42.4785L14.5352 35.8164ZM41.4473 35.8164L29.6348 42.4785V28.416L42.7305 21.0332V33.7949C42.7305 34.7266 42.3965 35.2715 41.4473 35.8164Z" fill="#83BEC3"/>
</svg>
