<svg width="80" height="81" viewBox="0 0 80 81" fill="none" xmlns="http://www.w3.org/2000/svg">
<path d="M28.0473 67.5368C29.4787 67.5368 30.5333 66.8336 32.266 65.3018L40.8793 57.7181H55.9965C63.5551 57.7181 67.799 53.3487 67.799 45.8906V26.3788C67.799 18.9207 63.5551 14.5513 55.9965 14.5513H23.9792C16.4457 14.5513 12.1768 18.9207 12.1768 26.3788V45.8906C12.1768 53.3738 16.5713 57.7181 23.8034 57.7181H24.833V63.8705C24.833 66.1054 26.0133 67.5368 28.0473 67.5368ZM29.3029 61.9118V54.755C29.3029 53.2734 28.65 52.6958 27.2437 52.6958H24.155C19.434 52.6958 17.174 50.3102 17.174 45.7399V26.5295C17.174 21.9592 19.434 19.5736 24.155 19.5736H55.8458C60.5417 19.5736 62.8018 21.9592 62.8018 26.5295V45.7399C62.8018 50.3102 60.5417 52.6958 55.8458 52.6958H40.6031C39.0713 52.6958 38.3179 52.9469 37.2633 54.0518L29.3029 61.9118ZM24.3559 39.1104H33.9987C34.9028 39.1104 35.6059 38.3571 35.6059 37.4531C35.6059 36.5742 34.9028 35.8208 33.9987 35.8208H24.3559C23.477 35.8208 22.7739 36.5742 22.7739 37.4531C22.7739 38.3571 23.477 39.1104 24.3559 39.1104ZM39.2722 39.1104H55.645C56.549 39.1104 57.2521 38.3571 57.2521 37.4531C57.2521 36.5742 56.549 35.8208 55.645 35.8208H39.2722C38.3682 35.8208 37.665 36.5742 37.665 37.4531C37.665 38.3571 38.3933 39.1104 39.2722 39.1104ZM24.3559 45.7148H28.4491C29.3531 45.7148 30.0813 44.9614 30.0813 44.0825C30.0813 43.1534 29.3531 42.4252 28.4491 42.4252H24.3559C23.477 42.4252 22.7739 43.1785 22.7739 44.0825C22.7739 44.9614 23.477 45.7148 24.3559 45.7148ZM33.7225 45.7148H45.7259C46.6299 45.7148 47.3581 44.9614 47.3581 44.0825C47.3581 43.1534 46.6299 42.4252 45.7259 42.4252H33.7225C32.8436 42.4252 32.1154 43.1785 32.1154 44.0825C32.1154 44.9614 32.8436 45.7148 33.7225 45.7148ZM50.9993 45.7148H55.645C56.5239 45.7148 57.2521 44.9614 57.2521 44.0825C57.2521 43.1534 56.5239 42.4252 55.645 42.4252H50.9993C50.1204 42.4252 49.3922 43.1785 49.3922 44.0825C49.3922 44.9614 50.1204 45.7148 50.9993 45.7148Z" fill="#51A5AA"/>
</svg>
