<svg width="56" height="56" viewBox="0 0 56 56" fill="none" xmlns="http://www.w3.org/2000/svg">
<path d="M17.3477 43.7617H38.6348C42.4492 43.7617 44.418 41.793 44.418 38.0312V16.6387C44.418 12.877 42.4492 10.9082 38.6348 10.9082H17.3477C13.5508 10.9082 11.5645 12.8594 11.5645 16.6387V38.0312C11.5645 41.793 13.5508 43.7617 17.3477 43.7617ZM17.5762 40.2637C15.959 40.2637 15.0625 39.4199 15.0625 37.7148V16.9551C15.0625 15.25 15.959 14.4062 17.5762 14.4062H38.4062C40.0059 14.4062 40.9199 15.25 40.9199 16.9551V37.7148C40.9199 39.4199 40.0059 40.2637 38.4062 40.2637H17.5762ZM20.916 17.4473C19.5273 17.4473 18.4727 18.5547 18.4727 20.0664C18.4727 22.4043 21.0391 24.3555 22.5332 25.375C22.6914 25.498 22.8672 25.5684 22.9902 25.5684C23.1133 25.5684 23.2715 25.4805 23.4297 25.375C24.9414 24.4785 27.4727 22.4043 27.4727 20.0664C27.4727 18.5547 26.418 17.4473 24.9941 17.4473C24.0977 17.4473 23.377 17.9922 22.9727 18.748C22.5684 17.9922 21.8652 17.4473 20.916 17.4473ZM19.6152 30.6309H36.3848C37.0352 30.6309 37.5098 30.1387 37.5098 29.5059C37.5098 28.8906 37.0352 28.416 36.3848 28.416H19.6152C18.9648 28.416 18.4727 28.8906 18.4727 29.5059C18.4727 30.1387 18.9648 30.6309 19.6152 30.6309ZM19.6152 36.3965H32.0254C32.6582 36.3965 33.1328 35.9219 33.1328 35.3066C33.1328 34.6738 32.6582 34.1641 32.0254 34.1641H19.6152C18.9648 34.1641 18.4727 34.6738 18.4727 35.3066C18.4727 35.9219 18.9648 36.3965 19.6152 36.3965Z" fill="#83BEC3"/>
</svg>
