<svg width="32" height="32" viewBox="0 0 32 32" fill="none" xmlns="http://www.w3.org/2000/svg">
<path d="M7.36168 25.3982H24.6284C26.788 25.3982 27.8929 24.3133 27.8929 22.1738V12.3301C27.8929 10.2006 26.788 9.10575 24.6284 9.10575H22.0871V8.31222C22.0871 6.41378 21.0626 5.50977 19.1641 5.50977H12.8159C11.0079 5.50977 9.90297 6.41378 9.90297 8.31222V9.10575H7.36168C5.21212 9.10575 4.09717 10.2006 4.09717 12.3301V22.1738C4.09717 24.3133 5.21212 25.3982 7.36168 25.3982ZM11.7411 8.23186C11.7411 7.55887 12.1429 7.17718 12.8461 7.17718H19.144C19.8472 7.17718 20.2389 7.55887 20.2389 8.23186V9.10575H11.7411V8.23186ZM7.44203 23.4696C6.56815 23.4696 6.09605 23.0276 6.09605 22.1136V12.3903C6.09605 11.4863 6.56815 11.0343 7.44203 11.0343H24.5481C25.4219 11.0343 25.894 11.4863 25.894 12.3903V22.1136C25.894 23.0276 25.4219 23.4696 24.5481 23.4696H7.44203ZM11.1284 18.1459C11.1284 18.7386 11.5402 19.1403 12.1329 19.1403H14.1117V21.1191C14.1117 21.7118 14.5034 22.1136 15.0961 22.1136H16.884C17.4766 22.1136 17.8784 21.7118 17.8784 21.1191V19.1403H19.8572C20.4498 19.1403 20.8516 18.7386 20.8516 18.1459V16.358C20.8516 15.7653 20.4498 15.3736 19.8572 15.3736H17.8784V13.3948C17.8784 12.8022 17.4766 12.4004 16.884 12.4004H15.0961C14.5034 12.4004 14.1117 12.8022 14.1117 13.3948V15.3736H12.1329C11.5302 15.3736 11.1284 15.7653 11.1284 16.358V18.1459Z" fill="#1C1C1E"/>
</svg>
