<svg width="40" height="40" viewBox="0 0 40 40" fill="none" xmlns="http://www.w3.org/2000/svg">
<g clip-path="url(#clip0_4068_552)">
<path d="M30.375 15.5L18.1406 27.7344C17.25 28.625 15.8047 28.625 14.9141 27.7344L9.625 22.4453C8.73438 21.5547 8.73438 20.1094 9.625 19.2188C10.5156 18.3281 11.9609 18.3281 12.8516 19.2188L16.5312 22.8984L27.1484 12.2812C28.0391 11.3906 29.4844 11.3906 30.375 12.2812C31.2656 13.1641 31.2656 14.6094 30.375 15.5ZM39.9609 20C39.9609 31.0234 31.0234 39.9609 20 39.9609C8.97656 39.9609 0.03125 31.0234 0.03125 20C0.03125 8.97656 8.97656 0.03125 20 0.03125C31.0234 0.03125 39.9609 8.97656 39.9609 20ZM35.3984 20C35.3984 11.4922 28.5 4.60156 20 4.60156C11.5 4.60156 4.60156 11.4922 4.60156 20C4.60156 28.5078 11.4922 35.3984 20 35.3984C28.5078 35.3984 35.3984 28.5078 35.3984 20Z" fill="url(#paint0_linear_4068_552)"/>
</g>
<defs>
<linearGradient id="paint0_linear_4068_552" x1="20.0247" y1="1.95557" x2="20.0246" y2="45.9744" gradientUnits="userSpaceOnUse">
<stop stop-color="#26C8D1"/>
<stop offset="0.35" stop-color="#12AFB8"/>
<stop offset="1" stop-color="#00555B"/>
</linearGradient>
<clipPath id="clip0_4068_552">
<rect width="40" height="40" fill="white"/>
</clipPath>
</defs>
</svg>
