<svg width="32" height="32" viewBox="0 0 32 32" fill="none" xmlns="http://www.w3.org/2000/svg">
<path d="M15.9897 25.9911C21.685 25.9911 26.3859 21.2902 26.3859 15.6049C26.3859 9.91964 21.6749 5.21875 15.9796 5.21875C10.2944 5.21875 5.60352 9.91964 5.60352 15.6049C5.60352 21.2902 10.3044 25.9911 15.9897 25.9911ZM15.9897 23.9219C11.3792 23.9219 7.6928 20.2154 7.6928 15.6049C7.6928 10.9944 11.3792 7.29799 15.9796 7.29799C20.5901 7.29799 24.2966 10.9944 24.3066 15.6049C24.3167 20.2154 20.6002 23.9219 15.9897 23.9219ZM10.9272 16.8705H15.9796C16.4417 16.8705 16.7932 16.519 16.7932 16.067V9.49777C16.7932 9.04576 16.4417 8.6942 15.9796 8.6942C15.5377 8.6942 15.1861 9.04576 15.1861 9.49777V15.2634H10.9272C10.4752 15.2634 10.1236 15.615 10.1236 16.067C10.1236 16.519 10.4752 16.8705 10.9272 16.8705Z" fill="#1C1C1E"/>
</svg>
