<svg class="deep-dive-button-image-close" xmlns="http://www.w3.org/2000/svg" width="41" height="41">
                      <path fill-rule="evenodd" d="M22.173 20.25l6.345-6.345c.481-.481.481-1.346 0-1.923-.48-.481-1.346-.481-1.922 0l-6.346 6.345-6.345-6.345c-.481-.481-1.346-.481-1.923 0-.481.481-.481 1.346 0 1.923l6.345 6.345-6.345 6.346c-.481.48-.481 1.346 0 1.922.481.481 1.346.481 1.923 0l6.345-6.345 6.346 6.345c.48.481 1.346.481 1.922 0 .481-.48.481-1.346 0-1.922l-6.345-6.346z"></path>
                    </svg>