<svg width="32" height="32" viewBox="0 0 32 32" fill="none" xmlns="http://www.w3.org/2000/svg">
<path d="M7.41162 24.3234H24.5779C26.7576 24.3234 27.8826 23.1883 27.8826 21.0388V10.1906C27.8826 8.04102 26.7576 6.91602 24.5779 6.91602H7.41162C5.24198 6.91602 4.10693 8.04102 4.10693 10.1906V21.0388C4.10693 23.1984 5.24198 24.3234 7.41162 24.3234ZM6.10582 10.3714C6.10582 9.40709 6.61809 8.92494 7.5422 8.92494H24.4473C25.3714 8.92494 25.8837 9.40709 25.8837 10.3714V11.0946H6.10582V10.3714ZM7.5422 22.3145C6.61809 22.3145 6.10582 21.8323 6.10582 20.868V13.4551H25.8837V20.868C25.8837 21.8323 25.3714 22.3145 24.4473 22.3145H7.5422ZM8.90827 20.4964H11.3692C11.9618 20.4964 12.3636 20.1046 12.3636 19.5421V17.6738C12.3636 17.1113 11.9618 16.7196 11.3692 16.7196H8.90827C8.32568 16.7196 7.9239 17.1113 7.9239 17.6738V19.5421C7.9239 20.1046 8.32568 20.4964 8.90827 20.4964Z" fill="#1C1C1E"/>
</svg>
