<svg width="23" height="23" viewBox="0 0 23 23" fill="none" xmlns="http://www.w3.org/2000/svg">
<g clip-path="url(#clip0_282_4192)">
<path d="M20.3848 1.0157H2.50977C2.10419 1.01158 1.71355 1.16851 1.42355 1.45207C1.13355 1.73562 0.967877 2.12264 0.962891 2.5282V20.4754C0.968779 20.8804 1.13484 21.2665 1.42475 21.5493C1.71465 21.8321 2.10478 21.9886 2.50977 21.9845H20.3848C20.7904 21.9877 21.1807 21.8302 21.4706 21.5465C21.7604 21.2627 21.9262 20.8758 21.9316 20.4702V2.52305C21.9244 2.11868 21.7579 1.7335 21.4682 1.45125C21.1785 1.16899 20.7892 1.01247 20.3848 1.0157Z" fill="#0076B2"/>
<path d="M4.06696 8.87549H7.17961V18.8906H4.06696V8.87549ZM5.62415 3.89111C5.98115 3.89111 6.33014 3.997 6.62696 4.19538C6.92377 4.39376 7.15508 4.67571 7.29162 5.00557C7.42817 5.33544 7.4638 5.69839 7.39403 6.04851C7.32426 6.39863 7.15221 6.72019 6.89964 6.97252C6.64708 7.22484 6.32536 7.39658 5.97517 7.46602C5.62498 7.53546 5.26206 7.49948 4.93233 7.36262C4.6026 7.22576 4.32086 6.99419 4.12277 6.69718C3.92467 6.40018 3.81912 6.05109 3.81946 5.69408C3.81991 5.21575 4.01025 4.75716 4.34865 4.41909C4.68704 4.08101 5.14581 3.89111 5.62415 3.89111ZM9.13211 8.87549H12.1159V10.2505H12.1571C12.5731 9.4633 13.5871 8.63314 15.1013 8.63314C18.2535 8.62627 18.8379 10.7008 18.8379 13.3906V18.8906H15.7252V14.018C15.7252 12.8578 15.7046 11.3642 14.1079 11.3642C12.5112 11.3642 12.2396 12.6292 12.2396 13.9424V18.8906H9.13211V8.87549Z" fill="white"/>
</g>
<defs>
<clipPath id="clip0_282_4192">
<rect width="22" height="22" fill="white" transform="translate(0.447266 0.5)"/>
</clipPath>
</defs>
</svg>
