<svg width="80" height="81" viewBox="0 0 80 81" fill="none" xmlns="http://www.w3.org/2000/svg">
<path d="M24.7822 63.0166H55.1924C60.6416 63.0166 63.4541 60.2041 63.4541 54.8302V24.2694C63.4541 18.8955 60.6416 16.083 55.1924 16.083H24.7822C19.3581 16.083 16.5205 18.8704 16.5205 24.2694V54.8302C16.5205 60.2041 19.3581 63.0166 24.7822 63.0166ZM25.1087 58.0194C22.7984 58.0194 21.5177 56.814 21.5177 54.3782V24.7214C21.5177 22.2856 22.7984 21.0802 25.1087 21.0802H54.8659C57.1511 21.0802 58.4569 22.2856 58.4569 24.7214V54.3782C58.4569 56.814 57.1511 58.0194 54.8659 58.0194H25.1087ZM29.8799 25.4245C27.8961 25.4245 26.3894 27.0066 26.3894 29.1662C26.3894 32.506 30.0557 35.2934 32.1902 36.7499C32.4162 36.9256 32.6673 37.0261 32.8431 37.0261C33.0188 37.0261 33.2448 36.9005 33.4708 36.7499C35.6304 35.4692 39.2465 32.506 39.2465 29.1662C39.2465 27.0066 37.7398 25.4245 35.7058 25.4245C34.4251 25.4245 33.3955 26.203 32.8179 27.2828C32.2404 26.203 31.2359 25.4245 29.8799 25.4245ZM28.0216 44.2582H51.9781C52.9072 44.2582 53.5852 43.5551 53.5852 42.6511C53.5852 41.7722 52.9072 41.0942 51.9781 41.0942H28.0216C27.0925 41.0942 26.3894 41.7722 26.3894 42.6511C26.3894 43.5551 27.0925 44.2582 28.0216 44.2582ZM28.0216 52.4948H45.7504C46.6544 52.4948 47.3325 51.8168 47.3325 50.9379C47.3325 50.0339 46.6544 49.3057 45.7504 49.3057H28.0216C27.0925 49.3057 26.3894 50.0339 26.3894 50.9379C26.3894 51.8168 27.0925 52.4948 28.0216 52.4948Z" fill="#51A5AA"/>
</svg>
