<svg width="32" height="19" viewBox="0 0 32 19" fill="none" xmlns="http://www.w3.org/2000/svg">
<path id="Icon" fill-rule="evenodd" clipRule="evenodd" d="M26.6035 11.7107C25.557 12.5908 24.1494 13.0808 22.7493 13.0808C19.4943 13.0808 16.8555 10.1931 16.8555 6.63062C16.8555 3.06905 19.6116 0.0543995 22.8665 0.00213242C24.9108 -0.0305328 26.476 0.294264 28.0073 1.40306C29.7591 2.67145 30.7437 4.72197 31.0147 6.74635C31.388 9.5342 30.7953 12.2194 29.3249 14.367C26.4722 18.5352 21.4121 18.9832 21.1982 19L21.0867 17.6047L20.9694 16.2094C21.0079 16.2056 24.7964 15.8062 26.8773 12.7663C26.9964 12.5927 27.1296 12.3771 27.2431 12.1746C27.2993 12.0738 27.4194 11.693 27.2834 11.5735C27.1061 11.4177 26.7845 11.5586 26.6035 11.7107ZM9.74781 11.7107C8.7022 12.5908 7.29462 13.0808 5.89455 13.0808C2.63864 13.0808 -0.00021553 10.1931 -0.00021553 6.63062C-0.00021553 3.06905 2.75586 0.0543995 6.01177 0.00213242C8.05609 -0.0305328 9.62121 0.294264 11.1516 1.40306C12.9043 2.67145 13.889 4.72197 14.16 6.74635C14.5332 9.5342 13.9405 12.2194 12.4701 14.367C9.61652 18.5352 4.5573 18.9832 4.34349 19L4.23096 17.6047L4.11374 16.2094C4.15313 16.2056 7.94168 15.8062 10.0226 12.7663C10.1417 12.5927 10.2748 12.3771 10.3883 12.1746C10.4446 12.0738 10.5646 11.693 10.4286 11.5735C10.2514 11.4177 9.92879 11.5586 9.74781 11.7107Z" fill="white" fill-opacity="0.45"/>
</svg>
