<svg width="80" height="81" viewBox="0 0 80 81" fill="none" xmlns="http://www.w3.org/2000/svg">
<path d="M73.4235 39.512C73.4235 30.1705 67.4971 24.0684 58.7332 24.0684C54.1378 24.0684 50.1952 26.002 45.9765 30.0951L39.9748 35.8708L33.9983 30.0951C29.7795 26.002 25.837 24.0684 21.2416 24.0684C12.4776 24.0684 6.55127 30.1705 6.55127 39.512C6.55127 48.8535 12.4776 54.9556 21.2416 54.9556C25.837 54.9556 29.7795 52.9969 33.9983 48.9289L39.9748 43.1281L45.9765 48.9289C50.1952 52.9969 54.1378 54.9556 58.7332 54.9556C67.4971 54.9556 73.4235 48.8535 73.4235 39.512ZM36.2332 39.512L30.2315 45.137C27.0675 48.1253 24.3052 49.6069 21.2416 49.6069C15.6919 49.6069 11.9 45.6392 11.9 39.512C11.9 33.3597 15.6919 29.4171 21.2416 29.4171C24.3052 29.4171 27.0675 30.8987 30.2566 33.887L36.2332 39.512ZM43.7416 39.512L49.7181 33.887C52.9073 30.8987 55.6445 29.4171 58.7332 29.4171C64.2829 29.4171 68.0747 33.3597 68.0747 39.512C68.0747 45.6392 64.2829 49.6069 58.7332 49.6069C55.6696 49.6069 52.9073 48.1253 49.7432 45.137L43.7416 39.512Z" fill="#51A5AA"/>
</svg>
