<svg width="24" height="15" viewBox="0 0 24 15" fill="none" xmlns="http://www.w3.org/2000/svg">
<g clip-path="url(#clip0_282_4195)">
<path d="M22.9372 2.33958C22.8053 1.88738 22.548 1.47512 22.1909 1.14386C21.8339 0.812593 21.3895 0.573884 20.9021 0.4515C19.1176 0 11.9356 0 11.9356 0C11.9356 0 4.75329 0.0136666 2.96881 0.465167C2.48137 0.587558 2.03699 0.82628 1.67993 1.15756C1.32287 1.48884 1.06559 1.90111 0.933704 2.35333C0.393939 5.29483 0.184554 9.777 0.948526 12.6008C1.08042 13.053 1.33771 13.4653 1.69477 13.7966C2.05183 14.1278 2.4962 14.3665 2.98363 14.4889C4.76812 14.9404 11.9503 14.9404 11.9503 14.9404C11.9503 14.9404 19.1323 14.9404 20.9167 14.4889C21.4042 14.3665 21.8485 14.1278 22.2056 13.7966C22.5627 13.4653 22.82 13.053 22.9519 12.6008C23.5212 9.65517 23.6967 5.17575 22.9372 2.33958Z" fill="#FF0000"/>
<path d="M9.6496 10.6716L15.6076 7.47005L9.6496 4.26855V10.6716Z" fill="white"/>
</g>
<defs>
<clipPath id="clip0_282_4195">
<rect width="23" height="15" fill="white" transform="translate(0.447266)"/>
</clipPath>
</defs>
</svg>
