<svg width="56" height="56" viewBox="0 0 56 56" fill="none" xmlns="http://www.w3.org/2000/svg">
<path d="M16.5898 24.918C20.8086 24.918 24.3242 21.4023 24.3242 17.1836C24.3242 12.9297 20.8086 9.41406 16.5898 9.41406C12.3359 9.41406 8.83789 12.9297 8.83789 17.1836C8.83789 21.4023 12.3535 24.918 16.5898 24.918ZM15.6582 21.332C15.2715 21.3496 14.9902 21.1387 14.7266 20.8223L12.7578 18.4668C12.5645 18.2383 12.4941 18.0273 12.4941 17.7285C12.4941 17.1836 12.916 16.7617 13.4434 16.7617C13.7949 16.7617 14.041 16.9023 14.2695 17.2188L15.623 18.9062L18.752 13.8789C18.9805 13.5273 19.2793 13.3516 19.6309 13.3516C20.1582 13.3516 20.5977 13.7559 20.5977 14.248C20.5977 14.4941 20.5449 14.7227 20.3691 14.9863L16.625 20.8047C16.3965 21.1387 16.0625 21.3496 15.6582 21.332ZM29.8965 18.7305H47.5801C48.4414 18.7305 49.1445 18.0449 49.1445 17.1836C49.1445 16.3223 48.4414 15.6367 47.5801 15.6367H29.8965C29.0352 15.6367 28.3672 16.3223 28.3672 17.1836C28.3672 18.0449 29.0352 18.7305 29.8965 18.7305ZM16.5898 45.2383C20.8086 45.2383 24.3242 41.7227 24.3242 37.4863C24.3242 33.2324 20.8086 29.7344 16.5898 29.7344C12.3359 29.7344 8.83789 33.25 8.83789 37.4863C8.83789 41.7227 12.3535 45.2383 16.5898 45.2383ZM16.5898 42.25C13.9883 42.25 11.8262 40.0703 11.8262 37.4863C11.8262 34.9023 14.0059 32.7051 16.5898 32.7051C19.1562 32.7051 21.3535 34.9023 21.3535 37.4863C21.3535 40.0703 19.1562 42.25 16.5898 42.25ZM29.8965 39.0684H47.5801C48.4414 39.0684 49.1445 38.3828 49.1445 37.5215C49.1445 36.6602 48.4414 35.9746 47.5801 35.9746H29.8965C29.0352 35.9746 28.3672 36.6602 28.3672 37.5215C28.3672 38.3828 29.0352 39.0684 29.8965 39.0684Z" fill="#83BEC3"/>
</svg>
