<svg width="13" height="14" viewBox="0 0 13 14" fill="none" xmlns="http://www.w3.org/2000/svg">
<path d="M2.78809 1.53704H10.2123C10.1728 1.02853 9.87333 0.757324 9.32526 0.757324H3.67515C3.12709 0.757324 2.82764 1.02853 2.78809 1.53704ZM1.68066 3.18122H11.3254C11.2463 2.64446 10.9694 2.33371 10.3649 2.33371H2.63553C2.03097 2.33371 1.75977 2.64446 1.68066 3.18122ZM2.23438 13.8204H10.7547C11.9752 13.8204 12.6193 13.1876 12.6193 11.9784V5.95543C12.6193 4.7463 11.9752 4.11349 10.7547 4.11349H2.23438C1.0083 4.11349 0.375488 4.74065 0.375488 5.95543V11.9784C0.375488 13.1876 1.0083 13.8204 2.23438 13.8204ZM2.30783 12.6904C1.78802 12.6904 1.49986 12.4248 1.49986 11.8767V6.05713C1.49986 5.50907 1.78802 5.23786 2.30783 5.23786H10.6813C11.2011 5.23786 11.4893 5.50907 11.4893 6.05713V11.8767C11.4893 12.4248 11.2011 12.6904 10.6813 12.6904H9.82247C9.34787 11.5208 8.04834 10.7185 6.49456 10.7185C4.94643 10.7185 3.6469 11.5208 3.17229 12.6904H2.30783ZM6.49456 9.8879C7.48333 9.8992 8.25739 9.05734 8.25739 7.96687C8.25739 6.9329 7.48333 6.07973 6.49456 6.07973C5.51144 6.07973 4.73172 6.9329 4.73737 7.96687C4.74302 9.05734 5.50579 9.8766 6.49456 9.8879Z" fill="#51A5AA"/>
</svg>
