<svg width="80" height="81" viewBox="0 0 80 81" fill="none" xmlns="http://www.w3.org/2000/svg">
<path d="M40.0001 65.4777C54.2384 65.4777 65.9655 53.7254 65.9655 39.5123C65.9655 25.2991 54.1882 13.5469 39.975 13.5469C26.7663 13.5469 15.7172 23.6669 14.2356 36.4989C15.7926 36.1473 17.8517 36.0469 19.5091 36.3231C20.9907 26.3287 29.5286 18.745 39.975 18.745C51.5013 18.745 60.7926 27.986 60.7926 39.5123C60.7926 45.0117 58.6832 49.9838 55.1927 53.6752C52.6062 50.8125 47.1318 48.2009 39.975 48.2009C37.7401 48.2009 35.6558 48.452 33.7725 48.904C34.0738 50.1094 34.2245 51.365 34.2245 52.6456C34.2245 56.7388 32.6424 60.5307 30.0811 63.4688C33.1447 64.7494 36.5096 65.4777 40.0001 65.4777ZM39.975 44.0826C44.8467 44.1077 48.6385 39.9643 48.6385 34.5904C48.6385 29.5179 44.8216 25.274 39.975 25.274C35.1536 25.274 31.2864 29.5179 31.3366 34.5904C31.3617 39.9643 35.1034 44.0324 39.975 44.0826ZM17.701 65.6032C24.7323 65.6032 30.6335 59.7271 30.6335 52.6456C30.6335 45.5642 24.8076 39.7132 17.701 39.7132C10.6196 39.7132 4.76855 45.5642 4.76855 52.6456C4.76855 59.7522 10.6196 65.6032 17.701 65.6032ZM16.1943 60.2796C15.7172 60.2796 15.1396 60.1038 14.763 59.6769L10.042 54.529C9.76576 54.2528 9.58998 53.7506 9.58998 53.3237C9.58998 52.2188 10.4438 51.5156 11.398 51.5156C12.0007 51.5156 12.4527 51.7416 12.754 52.0932L16.0939 55.7344L22.4722 46.87C22.8238 46.3929 23.3763 46.0915 24.004 46.0915C24.9834 46.0915 25.8121 46.87 25.8121 47.8744C25.8121 48.2009 25.6865 48.5776 25.4354 48.9291L17.701 59.6016C17.3997 60.0285 16.8221 60.2796 16.1943 60.2796Z" fill="#51A5AA"/>
</svg>
