<svg width="56" height="56" viewBox="0 0 56 56" fill="none" xmlns="http://www.w3.org/2000/svg">
<path d="M28 40.0352C28.7734 40.0352 29.8457 37.0996 29.8457 32.3535V21.2793C32.8164 20.4707 34.9785 17.7461 34.9785 14.5293C34.9785 10.6621 31.8848 7.51562 28 7.51562C24.1328 7.51562 21.0391 10.6621 21.0391 14.5293C21.0391 17.7285 23.1836 20.4531 26.1543 21.2617V32.3535C26.1543 37.082 27.2441 40.0352 28 40.0352ZM26.0312 14.916C24.7656 14.916 23.6406 13.8086 23.6406 12.5078C23.6406 11.2246 24.7656 10.1348 26.0312 10.1348C27.3496 10.1348 28.4219 11.2246 28.4219 12.5078C28.4219 13.8086 27.3496 14.916 26.0312 14.916ZM28 46.9609C39.1797 46.9609 45.877 43.1992 45.877 38.875C45.877 34.1465 38.6348 31.0879 32.8516 30.8418V33.9883C36.7891 34.1641 41.8691 35.9746 41.8691 38.5234C41.8691 41.5469 36.0332 43.6387 28 43.6387C19.9668 43.6387 14.1484 41.5645 14.1484 38.5234C14.1484 35.9746 19.2285 34.1641 23.1484 33.9883V30.8418C17.3652 31.0879 10.123 34.1465 10.123 38.875C10.123 43.1992 16.8203 46.9609 28 46.9609Z" fill="#83BEC3"/>
</svg>
