<svg width="16" height="16" viewBox="0 0 16 16" fill="none" xmlns="http://www.w3.org/2000/svg">
<path d="M1.63672 8.65674H6.99805V14.0181C6.99805 14.563 7.44629 15.02 8 15.02C8.55371 15.02 9.00195 14.563 9.00195 14.0181V8.65674H14.3633C14.9082 8.65674 15.3652 8.2085 15.3652 7.65479C15.3652 7.10107 14.9082 6.65283 14.3633 6.65283H9.00195V1.2915C9.00195 0.746582 8.55371 0.289551 8 0.289551C7.44629 0.289551 6.99805 0.746582 6.99805 1.2915V6.65283H1.63672C1.0918 6.65283 0.634766 7.10107 0.634766 7.65479C0.634766 8.2085 1.0918 8.65674 1.63672 8.65674Z" fill="#86868B"/>
</svg>
