<svg width="14" height="14" viewBox="0 0 14 14" fill="none" xmlns="http://www.w3.org/2000/svg">
<path d="M3.28809 1.03753H10.7123C10.6728 0.529018 10.3733 0.257812 9.82526 0.257812H4.17515C3.62709 0.257812 3.32764 0.529018 3.28809 1.03753ZM2.18066 2.68171H11.8254C11.7463 2.14495 11.4694 1.83419 10.8649 1.83419H3.13553C2.53097 1.83419 2.25977 2.14495 2.18066 2.68171ZM2.73438 13.3209H11.2547C12.4752 13.3209 13.1193 12.6881 13.1193 11.4789V5.45591C13.1193 4.24679 12.4752 3.61398 11.2547 3.61398H2.73438C1.5083 3.61398 0.875488 4.24114 0.875488 5.45591V11.4789C0.875488 12.6881 1.5083 13.3209 2.73438 13.3209ZM2.80783 12.1908C2.28802 12.1908 1.99986 11.9253 1.99986 11.3772V5.55762C1.99986 5.00956 2.28802 4.73835 2.80783 4.73835H11.1813C11.7011 4.73835 11.9893 5.00956 11.9893 5.55762V11.3772C11.9893 11.9253 11.7011 12.1908 11.1813 12.1908H10.3225C9.84787 11.0213 8.54834 10.219 6.99456 10.219C5.44643 10.219 4.1469 11.0213 3.67229 12.1908H2.80783ZM6.99456 9.38839C7.98333 9.39969 8.75739 8.55783 8.75739 7.46735C8.75739 6.43338 7.98333 5.58022 6.99456 5.58022C6.01144 5.58022 5.23172 6.43338 5.23737 7.46735C5.24302 8.55783 6.00579 9.37709 6.99456 9.38839Z" fill="#51A5AA"/>
</svg>
