<svg width="12" height="11" viewBox="0 0 12 11" fill="none" xmlns="http://www.w3.org/2000/svg">
<path d="M0.359924 5.37108C0.359924 5.71762 0.641174 5.99887 0.987715 5.99887C1.33928 5.99887 1.6155 5.71762 1.6155 5.37108V5.04463C1.6155 4.22599 2.178 3.69864 3.0318 3.69864H6.80356V4.74831C6.80356 5.04965 6.99441 5.2405 7.30077 5.2405C7.43638 5.2405 7.56193 5.19027 7.66238 5.10992L9.64117 3.46259C9.88727 3.26672 9.88225 2.93525 9.64117 2.73436L7.66238 1.08201C7.56193 0.996634 7.43638 0.946411 7.30077 0.946411C6.99441 0.946411 6.80356 1.13726 6.80356 1.4386V2.46315H3.13225C1.42968 2.46315 0.359924 3.41237 0.359924 4.92409V5.37108ZM5.19642 6.74719C5.19642 6.44585 5.00557 6.24998 4.70423 6.24998C4.56863 6.24998 4.43805 6.30523 4.3376 6.38558L2.36383 8.03291C2.11774 8.22878 2.11774 8.55523 2.36383 8.76114L4.3376 10.4135C4.43805 10.4989 4.56863 10.5491 4.70423 10.5491C5.00557 10.5491 5.19642 10.3582 5.19642 10.0569V9.02733H8.87276C10.5753 9.02733 11.6401 8.07308 11.6401 6.56639V6.1194C11.6401 5.76784 11.3638 5.48659 11.0123 5.48659C10.6657 5.48659 10.3845 5.76784 10.3845 6.1194V6.44585C10.3845 7.25947 9.827 7.79183 8.96818 7.79183H5.19642V6.74719Z" fill="#86868B"/>
</svg>
