<svg width="23" height="23" viewBox="0 0 23 23" fill="none" xmlns="http://www.w3.org/2000/svg">
<g clip-path="url(#clip0_282_4135)">
<path d="M17.291 0.5H5.60352C2.7558 0.5 0.447266 2.80853 0.447266 5.65625V17.3438C0.447266 20.1915 2.7558 22.5 5.60352 22.5H17.291C20.1387 22.5 22.4473 20.1915 22.4473 17.3438V5.65625C22.4473 2.80853 20.1387 0.5 17.291 0.5Z" fill="url(#paint0_radial_282_4135)"/>
<path d="M17.291 0.5H5.60352C2.7558 0.5 0.447266 2.80853 0.447266 5.65625V17.3438C0.447266 20.1915 2.7558 22.5 5.60352 22.5H17.291C20.1387 22.5 22.4473 20.1915 22.4473 17.3438V5.65625C22.4473 2.80853 20.1387 0.5 17.291 0.5Z" fill="url(#paint1_radial_282_4135)"/>
<path d="M11.448 2.90625C9.11415 2.90625 8.82119 2.91648 7.90458 2.95816C6.98969 3.00009 6.36518 3.1449 5.81879 3.35742C5.25349 3.57691 4.77405 3.87055 4.29641 4.34837C3.81834 4.82609 3.52469 5.30554 3.30452 5.87058C3.09139 6.41714 2.94641 7.04191 2.90525 7.95637C2.86426 8.87306 2.85352 9.16611 2.85352 11.5001C2.85352 13.8341 2.86383 14.1261 2.90542 15.0427C2.94753 15.9576 3.09234 16.5821 3.30469 17.1285C3.52434 17.6938 3.81799 18.1732 4.2958 18.6509C4.77336 19.1289 5.2528 19.4233 5.81767 19.6427C6.36449 19.8553 6.98909 20.0001 7.9038 20.042C8.8205 20.0837 9.1132 20.0939 11.447 20.0939C13.7812 20.0939 14.0732 20.0837 14.9898 20.042C15.9047 20.0001 16.5299 19.8553 17.0767 19.6427C17.6417 19.4233 18.1205 19.1289 18.598 18.6509C19.076 18.1732 19.3696 17.6938 19.5898 17.1287C19.8011 16.5821 19.9461 15.9574 19.9891 15.0429C20.0303 14.1262 20.041 13.8341 20.041 11.5001C20.041 9.16611 20.0303 8.87323 19.9891 7.95654C19.9461 7.04165 19.8011 6.41723 19.5898 5.87084C19.3696 5.30554 19.076 4.82609 18.598 4.34837C18.12 3.87038 17.6419 3.57673 17.0762 3.35751C16.5283 3.1449 15.9035 3.00001 14.9886 2.95816C14.0719 2.91648 13.78 2.90625 11.4454 2.90625H11.448ZM10.6771 4.45493C10.9059 4.45459 11.1613 4.45493 11.448 4.45493C13.7427 4.45493 14.0146 4.46318 14.9207 4.50434C15.7586 4.54267 16.2134 4.68266 16.5163 4.80031C16.9174 4.95603 17.2033 5.14226 17.5039 5.44312C17.8047 5.74391 17.9908 6.03034 18.147 6.43141C18.2646 6.73391 18.4048 7.18869 18.4429 8.02658C18.4841 8.93253 18.493 9.20461 18.493 11.4981C18.493 13.7916 18.4841 14.0638 18.4429 14.9696C18.4046 15.8075 18.2646 16.2623 18.147 16.5649C17.9912 16.966 17.8047 17.2515 17.5039 17.5521C17.2031 17.8529 16.9175 18.0391 16.5163 18.1949C16.2137 18.313 15.7586 18.4527 14.9207 18.491C14.0147 18.5322 13.7427 18.5411 11.448 18.5411C9.15334 18.5411 8.88134 18.5322 7.97548 18.491C7.13759 18.4523 6.6828 18.3123 6.37962 18.1947C5.97863 18.0389 5.69212 17.8528 5.39134 17.552C5.09055 17.2512 4.90441 16.9655 4.74827 16.5642C4.63062 16.2616 4.49045 15.8068 4.4523 14.969C4.41113 14.063 4.40288 13.7909 4.40288 11.496C4.40288 9.20109 4.41113 8.93038 4.4523 8.02443C4.49063 7.18654 4.63062 6.73176 4.74827 6.42883C4.90407 6.02776 5.09055 5.74133 5.39142 5.44055C5.6922 5.13977 5.97863 4.95354 6.3797 4.79748C6.68263 4.67931 7.13759 4.53966 7.97548 4.50116C8.76825 4.46533 9.07548 4.45459 10.6771 4.45278V4.45493ZM16.0354 5.88184C15.466 5.88184 15.0041 6.34332 15.0041 6.91274C15.0041 7.48208 15.466 7.94399 16.0354 7.94399C16.6047 7.94399 17.0666 7.48208 17.0666 6.91274C17.0666 6.34341 16.6047 5.88149 16.0354 5.88149V5.88184ZM11.448 7.08677C9.01085 7.08677 7.0348 9.06281 7.0348 11.5001C7.0348 13.9374 9.01085 15.9125 11.448 15.9125C13.8853 15.9125 15.8607 13.9374 15.8607 11.5001C15.8607 9.0629 13.8851 7.08677 11.4479 7.08677H11.448ZM11.448 8.63544C13.0301 8.63544 14.3127 9.91789 14.3127 11.5001C14.3127 13.0821 13.0301 14.3647 11.448 14.3647C9.86593 14.3647 8.58348 13.0821 8.58348 11.5001C8.58348 9.91789 9.86593 8.63544 11.448 8.63544Z" fill="white"/>
</g>
<defs>
<radialGradient id="paint0_radial_282_4135" cx="0" cy="0" r="1" gradientUnits="userSpaceOnUse" gradientTransform="translate(6.29102 24.1944) rotate(-90) scale(21.8036 20.2791)">
<stop stop-color="#FFDD55"/>
<stop offset="0.1" stop-color="#FFDD55"/>
<stop offset="0.5" stop-color="#FF543E"/>
<stop offset="1" stop-color="#C837AB"/>
</radialGradient>
<radialGradient id="paint1_radial_282_4135" cx="0" cy="0" r="1" gradientUnits="userSpaceOnUse" gradientTransform="translate(-3.23782 2.08477) rotate(78.681) scale(9.74634 40.1747)">
<stop stop-color="#3771C8"/>
<stop offset="0.128" stop-color="#3771C8"/>
<stop offset="1" stop-color="#6600FF" stop-opacity="0"/>
</radialGradient>
<clipPath id="clip0_282_4135">
<rect width="22" height="22" fill="white" transform="translate(0.447266 0.5)"/>
</clipPath>
</defs>
</svg>
