<svg width="56" height="56" viewBox="0 0 56 56" fill="none" xmlns="http://www.w3.org/2000/svg">
<path d="M14.3242 42.0039H32.6055C37.123 42.0039 39.7422 39.4551 39.7422 35.0254V32.916L46.0527 38.2598C46.8789 38.9629 47.7402 39.4375 48.584 39.4375C50.1836 39.4375 51.291 38.2773 51.291 36.5371V18.168C51.291 16.4277 50.1836 15.2676 48.584 15.2676C47.7402 15.2676 46.8789 15.7422 46.0527 16.4277L39.7422 21.7891V19.5918C39.7422 15.1621 37.123 12.5957 32.6055 12.5957H14.3242C9.96484 12.5957 7.20508 15.1621 7.20508 19.5918V35.1484C7.20508 39.5605 9.80664 42.0039 14.3242 42.0039ZM14.9043 38.8398C12.1621 38.8398 10.5977 37.3633 10.5977 34.5156V20.1016C10.5977 17.2012 12.1621 15.7773 14.9043 15.7773H32.0254C34.7676 15.7773 36.332 17.2363 36.332 20.1016V34.5156C36.332 37.3633 34.75 38.8398 32.0254 38.8398H14.9043ZM47.3711 35.377L39.7422 29.1367V25.5684L47.3711 19.3281C47.5293 19.2051 47.6348 19.1348 47.7754 19.1348C47.9688 19.1348 48.0742 19.2754 48.0742 19.5215V35.1836C48.0742 35.4121 47.9688 35.5703 47.7754 35.5703C47.6348 35.5703 47.5293 35.4824 47.3711 35.377Z" fill="#83BEC3"/>
</svg>
